<!-- <svg xmlns="http://www.w3.org/2000/svg" width="85" height="60" viewBox="0 0 85 60">
  <path fill="#FFFFFF" d="M5.138 54.039a3.77 3.77 0 0 1-.149-.005l-.859.002A4.134 4.134 0 0 1 0 49.906V5.195a4.135 4.135 0 0 1 4.13-4.133h46.973c2.272 0 4.123 1.95 4.123 4.229v44.612a4.133 4.133 0 0 1-4.127 4.131H29.962c-1.091-.019-3.239-.691-3.727-3.128-1.067-3.957-4.755-6.789-8.947-6.789-4.291 0-8.098 3.041-9.051 7.229-.225 1.817-1.723 2.693-3.099 2.693zM4.127 4.208c-.596 0-1.083.389-1.083.987v44.709c0 .597.488 1.086 1.086 1.086h1.004c.005-.047.123-.271.133-.317 1.267-5.562 6.323-9.597 12.022-9.597a12.356 12.356 0 0 1 11.912 9.137c.151.734.681.777.785.777h21.111c.596 0 1.083-.487 1.083-1.084V5.293c0-.598-.485-1.085-1.083-1.085H4.127zM84.929 35.828s-.093-2.093-.288-3.118c-.164-.873-1.087-2.644-1.087-2.644l-7.299-13.59c-.951-1.52-3.115-2.707-4.558-2.707H60.785a2.608 2.608 0 0 0-2.606 2.609v33.526a2.609 2.609 0 0 0 2.606 2.609h.643s.949-.123 1.304-1.312c.986-3.933 4.514-6.862 8.749-6.862 4.145 0 7.612 2.808 8.682 6.613.442 1.612 2.231 1.561 2.231 1.561A2.608 2.608 0 0 0 85 49.904l-.071-14.076zm-6.603-3.511H65.312a1.996 1.996 0 0 1-1.989-1.99V20.143c0-1.098.894-1.99 1.989-1.99h4.365c2.483 0 4.117 2.009 4.63 2.978l5.065 9.434c.521.962.053 1.752-1.046 1.752z"/>
  <path fill="#553C9A" d="M4.127 4.208c-.596 0-1.083.389-1.083.987v44.709c0 .597.488 1.086 1.086 1.086h1.004c.005-.047.123-.271.133-.317 1.267-5.562 6.323-9.597 12.022-9.597a12.356 12.356 0 0 1 11.912 9.137c.151.734.681.777.785.777h21.111c.596 0 1.083-.487 1.083-1.084V5.293c0-.598-.485-1.085-1.083-1.085H4.127z"/>
</svg> -->
<svg xmlns="http://www.w3.org/2000/svg" class="icon icon-tabler icon-tabler-ghost-2-filled" viewBox="0 0 24 24" stroke-width="2" stroke="currentColor" fill="none" stroke-linecap="round" stroke-linejoin="round">
   <path stroke="none" d="M0 0h24v24H0z" fill="none"></path>
   <path d="M12 1.999l.041 .002l.208 .003a8 8 0 0 1 7.747 7.747l.003 .248l.177 .006a3 3 0 0 1 2.819 2.819l.005 .176a3 3 0 0 1 -3 3l-.001 1.696l1.833 2.75a1 1 0 0 1 -.72 1.548l-.112 .006h-10c-3.445 .002 -6.327 -2.49 -6.901 -5.824l-.028 -.178l-.071 .001a3 3 0 0 1 -2.995 -2.824l-.005 -.175a3 3 0 0 1 3 -3l.004 -.25a8 8 0 0 1 7.996 -7.75zm0 10.001a2 2 0 0 0 -2 2a1 1 0 0 0 1 1h2a1 1 0 0 0 1 -1a2 2 0 0 0 -2 -2zm-1.99 -4l-.127 .007a1 1 0 0 0 .117 1.993l.127 -.007a1 1 0 0 0 -.117 -1.993zm4 0l-.127 .007a1 1 0 0 0 .117 1.993l.127 -.007a1 1 0 0 0 -.117 -1.993z" stroke-width="0" fill="#FFFFFF"></path>
</svg>